<?xml version="1.0" encoding="UTF-8"?>
<svg version="1.1" viewBox="0 0 84 84" width="1280" height="1280" xmlns="http://www.w3.org/2000/svg">
<path transform="translate(422,6)" d="m0 0h181l27 2 19 4 21 8 16 9 13 10 12 11 11 13 9 14 8 16 5 13 5 23 1 10v18l-2 17-6 17-13 33-10 15-9 11-10 10-14 10-19 10-13 6 8 14 9 16 15 24 16 26 13 21 16 26 10 16 11 17 1 3h-87l-5-5-8-13-12-20-17-28-13-22-12-19-8-13-24-38-9-15-1-2v-54l26-1h11l23-2 16-5 9-6 10-9 8-10 6-12 2-8-1-35-4-16-7-13-10-10-15-8-16-4-16-2-177-1z" fill="#D6D6D5"/>
<path transform="translate(1222,1)" d="m0 0h2l14 26 10 18 14 24 16 28 14 25 14 24 12 22 28 49 14 24 14 25 17 28 14 24 34 58 8 14-7-1-15-5-16-8-16-10-16-13-13-12-17-16-12-12-7-8-13-15-12-16-13-18-13-20-15-27-16-29-15-27-7-14-15 33-15 29-15 25-12 18-10 14-12 16-12 14-15 15-7 8-15 15-7 8-10 10-7 4-6 7-14 11-11 7-15 8-21 8-5 1 6-12 12-20 26-44 14-24 11-19 30-52 16-27 16-28 14-25 12-21 15-27 13-23 9-15 13-24z" fill="#E88D4D"/>
<path transform="translate(1208,320)" d="m0 0h31l22 3 23 6 22 8 39 20 19 10 28 15 30 15 19 6 10 2 6 4 6 9 16 27 1 4-29 1h-19l-17-2-28-6-25-7-26-9-19-7-19-6-26-6-20-3-12-1h-34l-25 3-27 6-32 10-41 15-26 7-23 4-20 2h-45l8-16 10-18 6-9 9-3 10-3 28-13 20-9 23-13 22-12 29-14 24-9 21-6 22-4z" fill="#AC3C94"/>
<path transform="translate(0,6)" d="m0 0h368v72h-329l-12-3-9-5-8-8-6-12-3-19z" fill="#D6D6D5"/>
<path transform="translate(630,213)" d="m0 0 5 1 3 6 18 1h28l19-1h18l8 2-2 5-8 12-9 11-10 10-14 10-19 10-13 6 8 14 9 16 15 24 16 26 13 21 16 26 10 16 11 17 1 3h-87l-5-5-8-13-12-20-17-28-13-22-12-19-8-13-24-38-9-15-1-2v-54l26-1h11l23-2z" fill="#BBC7C8"/>
<path transform="translate(420,150)" d="m0 0h79l1 235v64h-80z" fill="#BBC7C8"/>
<path transform="translate(839,150)" d="m0 0h78l1 1 1 298h-80z" fill="#BBC7C8"/>
<path transform="translate(1522,150)" d="m0 0h76v299h-79v-296z" fill="#BBC7C8"/>
<path transform="translate(162,150)" d="m0 0h77l1 1 1 247-1 51h-78z" fill="#BBC7C8"/>
<path transform="translate(1208,320)" d="m0 0h31l22 3 23 6 22 8 39 20 19 10 28 15 8 4-3 1-14-4-16-4-18-8-8-2-19 1-15 3v7l4 12 4 5-1 5-9-2-10-8-10-4-1-4-12-6-25-10-15-4h-11l-21 5-23 8-14 11-12 8-12 4h-6l-1-5 6-8 4-2-3-6-6-5h-19l-4-4-9 2-8 6-8 1v-2l-18 6-11-1v-2l25-14 22-12 29-14 24-9 21-6 22-4z" fill="#E04AA4"/>
<path transform="translate(654,317)" d="m0 0 17 1v2l4 2 12 20 12 19 32 52 10 16 11 17 1 3h-87l-5-5-8-13-12-20-17-28-13-22-12-19-3-7 1-5 4-7h2l1-3h13l20-2z" fill="#92B5BC"/>
<path transform="translate(234,317)" d="m0 0h5l1 3 1 78-1 51h-78v-93l1-22 7-10 5-4 10-2 20 2 7 2 4 1h7l8-5z" fill="#92B5BC"/>
<path transform="translate(1532,319)" d="m0 0h20l25 1 12-1 5 4v3l3 1 1 27v95h-79l1-69 1-39 5-15z" fill="#92B5BC"/>
<path transform="translate(1324,196)" d="m0 0h4l7 9 5 4v2h2l7 11 32 56 17 28 34 58 15 25-4 1-18-6-16-8-16-10-16-13-13-12-3-5-10-13-5-4-6-8-5-5-10-11-9-11-8-10-5-4-13-18-8-12-4-7 1-7h2v-2l5 2 12 9 7 6 13 9 11 5 11 3h6l1-5v-2l-4-2-13-9-17-12-12-9-7-6 3-8 20 1z" fill="#ED7B45"/>
<path transform="translate(426,330)" d="m0 0 25 1 47 2 2 52v64h-79v-103l1-13z" fill="#92B5BC"/>
<path transform="translate(1117,195)" d="m0 0 9 9 10 3h7l5 3 1 6-2 5-18 13-16 10-13 9-3 1 2 4 6 1 17-2 9-2h9l5 1-1 9-3 10-5 10-18 18-7 8-15 15-7 8-10 10-7 4-6 7-14 11-11 7-15 8-21 8-5 1 6-12 12-20 26-44 14-24 11-19 30-52 13-22z" fill="#ED7C45"/>
<path transform="translate(840,328)" d="m0 0 2 3 31 2 21-1 8-1h12l2 7 2 61 1 50h-80v-98z" fill="#92B5BC"/>
<path transform="translate(1187,65)" d="m0 0h2l4 10 8 16 3 7 1 12 5 7-2 15-7 33-6 18-10 15-13 17-10 13-17 11-25 16-7 4-9 1-6-2-1-4 10-7 17-11 12-8 9-7h2l1-8-2-4-4-1-11-1-8-4-5-7h-5l8-14 15-27 16-28 15-27 14-25z" fill="#F3AD57"/>
<path transform="translate(1263,72)" d="m0 0 3 4 13 23 16 28 14 25 14 24 13 24 6 11h-2v-2l-4-2-8-9v-2h-4l-2 5-5 6h-8l-12-1-2 7 12 10 16 11 18 13 6 4 1 6-2 2-11-1-13-5-12-7-11-9-10-8-8-6-4-4-2-6-13-17-11-21-8-24-2-14v-22l5-18 4-9 6-12 2-2z" fill="#F4AD56"/>
<path transform="translate(839,150)" d="m0 0h78l1 1v86l-2-2-1-7-10 2-19-1-21-2h-18l-4 2h-4z" fill="#D6D6D5"/>
<path transform="translate(162,150)" d="m0 0h77l1 1v74l-2-3-1-5-4 1-5 5-10 8-16 2-4 2-9-3-6-4-7-2h-9l-3 10-1 63h-1z" fill="#D6D6D5"/>
<path transform="translate(420,150)" d="m0 0h79v66l-2-3-8 4-5 4-6 10-15 5-8-1-17-9-4-9-12-5v27l-1 103h-1z" fill="#D6D6D5"/>
<path transform="translate(1519,6)" d="m0 0h81v72h-80l-1-1z" fill="#D6D6D5"/>
<path transform="translate(839,6)" d="m0 0h79v71h-79z" fill="#D6D6D5"/>
<path transform="translate(1522,150)" d="m0 0h76v86h-1v-13l-5-2-8-1-26-3-32-2-4-1-1 4-1 208h-1v-273z" fill="#D5D5D4"/>
<path transform="translate(1222,1)" d="m0 0h2l14 26 15 27-1 9-4 14-12 45-3 6-5 5-9 6h-4l-1-2v-17l-3-16-7-21-8-16-2-8 3-4 1-9 18-34z" fill="#ED7B45"/>
<path transform="translate(1383,297)" d="m0 0 6 1 5 5 5 8 5 5 15 26 13 22 15 25-4 1-18-6-16-8-16-10-16-13-13-12-3-5 1-7 5-3 6-2 1-7 3-6 2-8z" fill="#E67142"/>
<path transform="translate(913,401)" d="m0 0h2l3 28 1 20h-80v-22l1-1 1-20 2-2 5 6 4-1 6-4 5 4h35l8 3z" fill="#71A0A9"/>
<path transform="translate(231,405)" d="m0 0 5 1 4 3v40h-78v-32l8-6 5-1h50l4-1z" fill="#71A0A9"/>
<path transform="translate(1263,72)" d="m0 0 3 4 13 23 16 28 14 25 14 24 1 3-3-1-6-10-9-6-4-9-1-4-8 2-8-1-6-2-7-1-19-1-6-3-5-10v-23l5-15 5-12 5-8z" fill="#F4C55F"/>
<path transform="translate(1524,413)" d="m0 0 4 2 37 1h16l12-2 5-1v36h-78v-8h3v-18z" fill="#71A0A9"/>
<path transform="translate(658,420)" d="m0 0 10 1 67-1 10 15 8 13v1h-87l-5-5-8-13-1-5 4-5z" fill="#71A0A9"/>
<path transform="translate(1117,195)" d="m0 0 9 9 10 3h7l5 3 1 6-2 5-18 13-16 10-13 9-3 1 2 4 6 2-3 3-14 7-7 2-9 1-3 1v2l-2-1 10-18 14-24 15-26 7-11z" fill="#E88C4C"/>
<path transform="translate(1187,65)" d="m0 0h2l4 10 8 16 3 7v21l-5 10-5 3-25 4h-10l-5-4-5 2 2-5 12-22 13-23z" fill="#F4C45F"/>
<path transform="translate(1324,196)" d="m0 0h4l7 9 5 4v2h2l7 11 16 28 11 19-1 2-15-2-9-4-6-4-4-2 6-2v-6l-4-2-13-9-17-12-12-9-7-6 3-8 20 1z" fill="#E88C4C"/>
<path transform="translate(1186,166)" d="m0 0 3 1-4 14-4 6-12 14-16 17-4 1-1-3-1-6-5-2-11-1-8-4-5-7h-5l5-9 5-3 1-2h2l2-5 6-1 25-1 21-7z" fill="#F49F52"/>
<path transform="translate(1058,304)" d="m0 0h3l2 8 3 17 4 6 3 3-2 4-1 5-4 5-11 8-8 7-17 10-14 5h-3l-1-6 8-10 10-17 12-20 5-8 6-11z" fill="#E67042"/>
<path transform="translate(489,421)" d="m0 0 5 5 5 8v15h-78v-21l1-2h50l12-3h4z" fill="#71A0A9"/>
<path transform="translate(1271,173)" d="m0 0h9l41 10 7 2 12 22 2 4h-2v-2l-4-2-8-9v-2h-4l-2 5-5 6h-8l-12-1-2 6-4-2-19-19-6-8-1-5 3-4z" fill="#F39F52"/>
<path transform="translate(1223,12)" d="m0 0h5l7 12v2l4 2 4 9 2 5 1 5-4 3-7 2-14 1-6 5-11-1-3-3 2-5 5-10 10-19z" fill="#E67042"/>
<path transform="translate(1519,6)" d="m0 0h81v72h-80l-1-1zm12 2-5 3-4 5v58l1 2h52l13-2 6-5 3-9v-40l-3-7-3-3-13-2z" fill="#BDC8C9"/>
<path transform="translate(1305,222)" d="m0 0 11 7 18 13 13 9 1 6-2 2-11-1-13-5-12-7-6-5 5-4-1-3-4-4v-6z" fill="#F49F52"/>
<path transform="translate(1155,226)" d="m0 0 7 1-5 4-15 10-22 14-7 4-9 1-6-2-1-4 10-7 17-11 12-8h3l-2 4 3 1h8l3-1 2-5z" fill="#F49F52"/>
<path transform="translate(1388,358)" d="m0 0 5 2 1 2 9 5 10 7 14 6 6 2h6l-1-6 3 3 6 11-7-1-15-5-16-8-16-10-6-5z" fill="#EC824C"/>
<path transform="translate(1133,260)" d="m0 0 5 3v3l-6 3-5 1-1-4z" fill="#E88C4C"/>
<path transform="translate(1049,364)" d="m0 0m-1 1m-1 1 1 3-18 10-6 2 1-3 16-8z" fill="#ED854C"/>
<path transform="translate(1364,340)" d="m0 0 4 2 9 8-1 2-12-11z" fill="#EB864D"/>
</svg>
